<?xml version="1.0" encoding="UTF-8" standalone="no"?>
<svg width="509px" height="205px" viewBox="0 0 509 205" version="1.1" xmlns="http://www.w3.org/2000/svg" xmlns:xlink="http://www.w3.org/1999/xlink" xmlns:sketch="http://www.bohemiancoding.com/sketch/ns">
    <title>onchange_kvo</title>
    <description>Created with Sketch (http://www.bohemiancoding.com/sketch)</description>
    <defs></defs>
    <g id="KVO" stroke="none" stroke-width="1" fill="none" fill-rule="evenodd" sketch:type="MSPage">
        <path d="M103.5,70.5 L84.5,59.5" id="Line" stroke="#417505" stroke-linecap="square" sketch:type="MSShapeGroup"></path>
        <path d="M86.5,104.5 L107,80" id="Line" stroke="#417505" stroke-linecap="square" sketch:type="MSShapeGroup"></path>
        <path d="M95.5,116.5 L123.5,142.5" id="Line" stroke="#417505" stroke-linecap="square" sketch:type="MSShapeGroup"></path>
        <path d="M152.5,89.5 L126.5,134.5" id="Line" stroke="#417505" stroke-linecap="square" sketch:type="MSShapeGroup"></path>
        <path d="M149.5,82.5 L113.5,75.5" id="Line" stroke="#417505" stroke-linecap="square" sketch:type="MSShapeGroup"></path>
        <circle id="Oval-1" stroke="#417505" fill="#B8E986" sketch:type="MSShapeGroup" cx="76.5" cy="55.5" r="11.5"></circle>
        <circle id="Oval-1" stroke="#417505" fill="#B8E986" sketch:type="MSShapeGroup" cx="87.5" cy="109.5" r="11.5"></circle>
        <circle id="Oval-1" stroke="#417505" fill="#D0011B" sketch:type="MSShapeGroup" cx="122.5" cy="140.5" r="11.5"></circle>
        <circle id="Oval-1" stroke="#979797" fill="#D8D8D8" sketch:type="MSShapeGroup" cx="110.5" cy="73.5" r="11.5"></circle>
        <circle id="Oval-1" stroke="#417505" fill="#B8E986" sketch:type="MSShapeGroup" cx="110.5" cy="73.5" r="11.5"></circle>
        <circle id="Oval-1" stroke="#417505" fill="#B8E986" sketch:type="MSShapeGroup" cx="152.5" cy="85.5" r="11.5"></circle>
        <path d="M403.5,204 C461.213759,204 508,158.556905 508,102.5 C508,46.4430951 461.213759,1 403.5,1 C345.786241,1 299,46.4430951 299,102.5 C299,158.556905 345.786241,204 403.5,204 Z" id="Oval-7" stroke="#D4D4D4" fill="#FFFEF0" sketch:type="MSShapeGroup"></path>
        <path d="M411.5,41.5 L381.5,70.5" id="Line" stroke="#417505" stroke-linecap="square" sketch:type="MSShapeGroup"></path>
        <path d="M410.5,40.5 L444.5,71.5" id="Line" stroke="#417505" stroke-linecap="square" sketch:type="MSShapeGroup"></path>
        <path d="M380.5,90.5 L351.5,117.5" id="Line" stroke="#417505" stroke-linecap="square" sketch:type="MSShapeGroup"></path>
        <path d="M381.5,88.5 L412.5,117.5" id="Line" stroke="#417505" stroke-linecap="square" sketch:type="MSShapeGroup"></path>
        <path d="M412.5,136.5 L412.5,168.5" id="Line" stroke="#417505" stroke-linecap="square" sketch:type="MSShapeGroup"></path>
        <rect id="Rectangle-1" stroke="#417505" fill="#B8E986" sketch:type="MSShapeGroup" x="389" y="20" width="43" height="24"></rect>
        <rect id="Rectangle-1" stroke="#417505" fill="#B8E986" sketch:type="MSShapeGroup" x="360" y="69" width="43" height="24"></rect>
        <rect id="Rectangle-1" stroke="#417505" fill="#B8E986" sketch:type="MSShapeGroup" x="420" y="69" width="43" height="24"></rect>
        <rect id="Rectangle-1" stroke="#417505" fill="#D0011B" sketch:type="MSShapeGroup" x="330" y="116" width="43" height="24"></rect>
        <rect id="Rectangle-1" stroke="#417505" fill="#B8E986" sketch:type="MSShapeGroup" x="389" y="116" width="43" height="24"></rect>
        <rect id="Rectangle-1" stroke="#417505" fill="#B8E986" sketch:type="MSShapeGroup" x="389" y="162" width="43" height="24"></rect>
        <path d="M386.5,1.5 L0.5,48.5" id="Line" stroke="#D4D4D4" stroke-linecap="square" sketch:type="MSShapeGroup"></path>
        <path d="M380.5,202.5 L4.5,134.5" id="Line" stroke="#D4D4D4" stroke-linecap="square" sketch:type="MSShapeGroup"></path>
        <text id="Model" sketch:type="MSTextLayer" font-family="Helvetica" font-size="12" font-weight="normal" fill="#000000">
            <tspan x="124" y="54">Model</tspan>
        </text>
        <text id="Binding-update" sketch:type="MSTextLayer" font-family="Helvetica" font-size="12" font-weight="normal" fill="#000000">
            <tspan x="185" y="151">Binding update</tspan>
        </text>
        <text id="DOM" sketch:type="MSTextLayer" font-family="Helvetica" font-size="12" font-weight="normal" fill="#000000">
            <tspan x="457" y="133">DOM</tspan>
        </text>
        <rect id="Rectangle-19" stroke="#4A4A4A" sketch:type="MSShapeGroup" x="63" y="42" width="27" height="27"></rect>
        <rect id="Rectangle-19" stroke="#000000" sketch:type="MSShapeGroup" x="97" y="60" width="27" height="27"></rect>
        <rect id="Rectangle-19" stroke="#000000" sketch:type="MSShapeGroup" x="139" y="72" width="27" height="27"></rect>
        <rect id="Rectangle-19" stroke="#000000" sketch:type="MSShapeGroup" x="74" y="96" width="27" height="27"></rect>
        <rect id="Rectangle-19" stroke="#000000" sketch:type="MSShapeGroup" x="109" y="126" width="27" height="27"></rect>
        <path d="M329.5,127.5 L134.5,142.5" id="Line" stroke="#D0011B" stroke-linecap="square" fill="#D0011B" sketch:type="MSShapeGroup"></path>
        <path id="Line-decoration-1" d="M328.702356,127.561357 C325.014022,128.898177 321.852592,130.044023 318.164257,131.380843 C318.003194,129.287028 317.865141,127.49233 317.704078,125.398516 C321.553475,126.15551 324.852959,126.804363 328.702356,127.561357 C328.702356,127.561357 328.702356,127.561357 328.702356,127.561357 Z" stroke="#D0011B" stroke-linecap="square" fill="#D0011B"></path>
    </g>
</svg>