<svg class="icon" viewBox="0 0 1024 1024" xmlns="http://www.w3.org/2000/svg" width="32" height="32"><defs><style/></defs><path d="M678.5 413.8h-40v-.2l-.2.2-33-27.7-33 27.7-.2-.2v.2h-40v-200H289.5c-30.3 0-55 24.7-55 55v480.1c15.5-11.1 34.5-17.6 55-17.6h530.9V213.8H678.5v200zm-369 337.5h-40c-30.3 0-55 24.7-55 55s24.7 55 55 55v-.1h40v.1h462.7c-11.1-15.5-17.6-34.5-17.6-55s6.5-39.5 17.6-55H309.5z" fill="#0F0"/><path d="M269.3 153.8c-52.3.1-94.9 42.7-94.9 95v560c1.3 51.3 43.4 92.6 95 92.6h570.9v-40.8c-17.6-3-32.3-14.3-40-29.8-3.7-7.4-5.8-15.7-5.8-24.4s2.1-17.1 5.8-24.4c7.7-15.4 22.4-26.8 40-29.8V153.8h-571zm349.2 40h20V362l-32.2-27-.9-.9-.1.1-.1-.1-.9.9-32.2 27V193.8h46.4zm153.7 667.5H309.5v-.1h-40v.1c-30.3 0-55-24.7-55-55s24.7-55 55-55h502.7c-11.1 15.5-17.6 34.5-17.6 55s6.5 39.5 17.6 55zm28.1-150H269.5c-20.5 0-39.5 6.5-55 17.6V248.8c0-30.3 24.7-55 55-55H532v220h40v-.2l.2.2 33-27.7 33 27.7.2-.2v.2h40v-220h121.9v517.5z" fill="#0F0"/></svg>