<svg width="484" height="433" viewBox="0 0 484 433" xmlns="http://www.w3.org/2000/svg"><g fill="none" fill-rule="evenodd"><path d="M62.5 171.5l-19-11m2 45L66 181m-11.5 36.5l28 26m29-53l-26 45m23-52l-36-7" stroke="#417505" stroke-linecap="square"/><circle stroke="#417505" fill="#B8E986" cx="35.5" cy="156.5" r="11.5"/><circle stroke="#417505" fill="#B8E986" cx="46.5" cy="210.5" r="11.5"/><circle stroke="#417505" fill="#D0011B" cx="81.5" cy="241.5" r="11.5"/><circle stroke="#979797" fill="#D8D8D8" cx="69.5" cy="174.5" r="11.5"/><circle stroke="#417505" fill="#B8E986" cx="69.5" cy="174.5" r="11.5"/><circle stroke="#417505" fill="#B8E986" cx="111.5" cy="186.5" r="11.5"/><path d="M378.5 432c57.714 0 104.5-45.443 104.5-101.5S436.214 229 378.5 229 274 274.443 274 330.5 320.786 432 378.5 432z" stroke="#D4D4D4" fill="#FFFEF0"/><path d="M386.5 269.5l-30 29m29-30l34 31m-64 19l-29 27m30-29l31 29m0 19v32" stroke="#417505" stroke-linecap="square"/><path stroke="#417505" fill="#B8E986" d="M364 248h43v24h-43zm-29 49h43v24h-43zm60 0h43v24h-43z"/><path stroke="#417505" fill="#D0011B" d="M305 344h43v24h-43z"/><path stroke="#417505" fill="#B8E986" d="M364 344h43v24h-43zm0 44h43v24h-43z"/><path d="M340.5 6.5l-340 151m399 44l-393 67m402-36l-402-98" stroke="#D4D4D4" stroke-linecap="square"/><text font-family="Helvetica" font-size="12" fill="#000"><tspan x="106" y="221">Model</tspan></text><text font-family="Helvetica" font-size="12" fill="#000"><tspan x="433" y="361">DOM 2</tspan></text><path d="M376.5 204c57.714 0 104.5-45.443 104.5-101.5S434.214 1 376.5 1 272 46.443 272 102.5 318.786 204 376.5 204z" stroke="#D4D4D4" fill="#FFFEF0"/><path d="M384.5 41.5l-30 29m29-30l34 31m-64 19l-29 27m30-29l31 29m0 19v32" stroke="#417505" stroke-linecap="square"/><path stroke="#417505" fill="#B8E986" d="M362 20h43v24h-43zm-29 49h43v24h-43zm60 0h43v24h-43zm-90 47h43v24h-43zm59 0h43v24h-43zm0 46h43v24h-43z"/><text font-family="Helvetica" font-size="12" fill="#000"><tspan x="431" y="133">DOM 1</tspan></text><path d="M325.5 418.5l-322-205" stroke="#D4D4D4" stroke-linecap="square"/></g></svg>