<svg width="496" height="172" viewBox="0 0 496 172" xmlns="http://www.w3.org/2000/svg"><g fill="none" fill-rule="evenodd"><path d="M51.5 48.5l-19-11m2 45L55 58M43.5 94.5l28 26m29-53l-26 45m23-52l-36-7" stroke="#417505" stroke-linecap="square"/><circle stroke="#417505" fill="#B8E986" cx="24.5" cy="33.5" r="11.5"/><circle stroke="#417505" fill="#B8E986" cx="35.5" cy="87.5" r="11.5"/><circle stroke="#417505" fill="#B8E986" cx="70.5" cy="118.5" r="11.5"/><circle stroke="#979797" fill="#D8D8D8" cx="58.5" cy="51.5" r="11.5"/><circle stroke="#417505" fill="#B8E986" cx="58.5" cy="51.5" r="11.5"/><circle stroke="#417505" fill="#B8E986" cx="100.5" cy="63.5" r="11.5"/><path d="M422.5 21.5l-30 29m29-30l34 31m-64 19l-29 27m30-29l31 29m0 19v32" stroke="#417505" stroke-linecap="square"/><path stroke="#417505" fill="#B8E986" d="M371 49h43v24h-43zm60 0h43v24h-43zm-90 47h43v24h-43zm59 0h43v24h-43z"/><path d="M216 148c38.66 0 70-30.445 70-68s-31.34-68-70-68-70 30.445-70 68 31.34 68 70 68z" stroke="#D4D4D4" fill="#FFFEF0"/><path d="M219.677 35.333l-19.354 19.334m19.006-20.323l22.342 21.312M199.683 68.34l-18.366 18.32m19.011-19.327l20.344 19.334" stroke="#7ED321" stroke-linecap="square"/><path stroke="#417505" fill="#B8E986" d="M400 0h43v24h-43zm0 142h43v24h-43z"/><path stroke="#7ED321" fill="#EDFFDA" d="M206 21h27v17h-27z"/><path d="M220.5 99.333v21.334" stroke="#7ED321" stroke-linecap="square"/><path stroke="#7ED321" fill="#EDFFDA" d="M187 54h27v17h-27zm39 0h27v17h-27zm-58 32h27v17h-27zm38 0h27v17h-27zm0 31h27v17h-27z"/><path d="M219.5 12.5L.528 23.446M212.5 148.5L.528 120.555" stroke="#D4D4D4" stroke-linecap="square"/><text font-family="Helvetica" font-size="12" fill="#000"><tspan x="72" y="38">Model</tspan></text><text font-family="Helvetica" font-size="12" fill="#000"><tspan x="187" y="171">Virtual DOM</tspan></text><text font-family="Helvetica" font-size="12" fill="#000"><tspan x="293" y="94">Render</tspan></text><text font-family="Helvetica" font-size="12" fill="#000"><tspan x="468" y="113">DOM</tspan></text><path d="M287.5 77.5h43m-10.8 3l10.8-3-10.8-3" stroke="#979797" stroke-linecap="square" fill="#9B9B9B"/></g></svg>