<svg width="509" height="205" viewBox="0 0 509 205" xmlns="http://www.w3.org/2000/svg"><g fill="none" fill-rule="evenodd"><path d="M103.5 70.5l-19-11m2 45L107 80m-11.5 36.5l28 26m29-53l-26 45m23-52l-36-7" stroke="#417505" stroke-linecap="square"/><circle stroke="#417505" fill="#B8E986" cx="76.5" cy="55.5" r="11.5"/><circle stroke="#417505" fill="#B8E986" cx="87.5" cy="109.5" r="11.5"/><circle stroke="#417505" fill="#D0011B" cx="122.5" cy="140.5" r="11.5"/><circle stroke="#979797" fill="#D8D8D8" cx="110.5" cy="73.5" r="11.5"/><circle stroke="#417505" fill="#B8E986" cx="110.5" cy="73.5" r="11.5"/><circle stroke="#417505" fill="#B8E986" cx="152.5" cy="85.5" r="11.5"/><path d="M403.5 204c57.714 0 104.5-45.443 104.5-101.5S461.214 1 403.5 1 299 46.443 299 102.5 345.786 204 403.5 204z" stroke="#D4D4D4" fill="#FFFEF0"/><path d="M411.5 41.5l-30 29m29-30l34 31m-64 19l-29 27m30-29l31 29m0 19v32" stroke="#417505" stroke-linecap="square"/><path stroke="#417505" fill="#B8E986" d="M389 20h43v24h-43zm-29 49h43v24h-43zm60 0h43v24h-43z"/><path stroke="#417505" fill="#D0011B" d="M330 116h43v24h-43z"/><path stroke="#417505" fill="#B8E986" d="M389 116h43v24h-43zm0 46h43v24h-43z"/><path d="M386.5 1.5l-386 47m380 154l-376-68" stroke="#D4D4D4" stroke-linecap="square"/><text font-family="Helvetica" font-size="12" fill="#000"><tspan x="124" y="54">Model</tspan></text><text font-family="Helvetica" font-size="12" fill="#000"><tspan x="185" y="151">Binding update</tspan></text><text font-family="Helvetica" font-size="12" fill="#000"><tspan x="457" y="133">DOM</tspan></text><path stroke="#4A4A4A" d="M63 42h27v27H63z"/><path stroke="#000" d="M97 60h27v27H97zm42 12h27v27h-27zM74 96h27v27H74zm35 30h27v27h-27z"/><path d="M329.5 127.5l-195 15m194.202-14.939l-10.538 3.82c-.16-2.094-.299-3.889-.46-5.982l10.998 2.162s0 0 0 0z" stroke="#D0011B" stroke-linecap="square" fill="#D0011B"/></g></svg>