<svg width="509" height="205" viewBox="0 0 509 205" xmlns="http://www.w3.org/2000/svg"><g fill="none" fill-rule="evenodd"><path d="M103.5 70.5l-19-11m2 45L107 80m-11.5 36.5l28 26m29-53l-26 45m23-52l-36-7" stroke="#417505" stroke-linecap="square"/><circle stroke="#417505" fill="#B8E986" cx="76.5" cy="55.5" r="11.5"/><circle stroke="#417505" fill="#B8E986" cx="87.5" cy="109.5" r="11.5"/><circle stroke="#417505" fill="#D0011B" cx="122.5" cy="140.5" r="11.5"/><circle stroke="#979797" fill="#D8D8D8" cx="110.5" cy="73.5" r="11.5"/><circle stroke="#417505" fill="#B8E986" cx="110.5" cy="73.5" r="11.5"/><circle stroke="#417505" fill="#B8E986" cx="152.5" cy="85.5" r="11.5"/><path d="M403.5 204c57.714 0 104.5-45.443 104.5-101.5S461.214 1 403.5 1 299 46.443 299 102.5 345.786 204 403.5 204z" stroke="#D4D4D4" fill="#FFFEF0"/><path d="M411.5 41.5l-30 29m29-30l34 31m-64 19l-29 27m30-29l31 29m0 19v32" stroke="#417505" stroke-linecap="square"/><path stroke="#417505" fill="#B8E986" d="M389 20h43v24h-43zm-29 49h43v24h-43zm60 0h43v24h-43z"/><path stroke="#417505" fill="#D0011B" d="M330 116h43v24h-43z"/><path stroke="#417505" fill="#B8E986" d="M389 116h43v24h-43zm0 46h43v24h-43z"/><path d="M386.5 1.5l-386 47m380 154l-376-68" stroke="#D4D4D4" stroke-linecap="square"/><text font-family="Helvetica" font-size="12" fill="#000"><tspan x="124" y="54">Model</tspan></text><text font-family="Helvetica" font-size="12" fill="#000"><tspan x="212" y="107">Watchers</tspan></text><text font-family="Helvetica" font-size="12" fill="#000"><tspan x="457" y="133">DOM</tspan></text><path d="M389 29H254.55C161.682 29 89 52 89 52" stroke="#7ED321" stroke-linecap="square"/><path d="M89.12 51.963a418.74 418.74 0 0 1 11.147-.048l-1.547-5.797a447.589 447.589 0 0 0-9.6 5.845zM361.5 74.5s-6.516-.828-89.027 0c-82.512.828-108.973 6-108.973 6" stroke="#7ED321" stroke-linecap="square"/><path d="M163.742 80.455c3.88.46 7.19.933 11.04 1.539l-.662-5.964a277.714 277.714 0 0 0-10.378 4.425zM421.5 80.5s-7.684-32.813-137.438-27.379C154.31 58.555 121.5 69.5 121.5 69.5" stroke="#7ED321" stroke-linecap="square"/><path d="M121.926 69.368c3.919.055 7.232.223 11.109.492l-1.167-5.886a200.96 200.96 0 0 0-9.942 5.394z" stroke="#7ED321" stroke-linecap="square"/><path d="M330.5 127.5s-35.879 6.556-74.05 12c-38.173 5.444-123.95 0-123.95 0" stroke="#D0011B" stroke-linecap="square"/><path d="M132.617 139.507c3.712 1.272 6.91 2.35 10.624 3.598l.308-5.992c-3.812.85-7.1 1.57-10.932 2.394z" stroke="#D0011B" stroke-linecap="square"/><path d="M390.5 174.5s-17.8-7.297-112.86-32c-95.058-24.703-179.14-32-179.14-32" stroke="#7ED321" stroke-linecap="square"/><path d="M98.98 110.543a862.778 862.778 0 0 1 10.423 4.084l.658-5.964a959.02 959.02 0 0 0-11.08 1.88zM390.5 124.5s1-13.09-56.5-24.598C276.5 88.395 162.5 92.5 162.5 92.5" stroke="#7ED321" stroke-linecap="square"/><path d="M162.938 92.485c3.82.933 7.071 1.745 10.869 2.703l-.137-5.998a1724.344 1724.344 0 0 0-10.732 3.295z" stroke="#7ED321" stroke-linecap="square"/></g></svg>