<svg width="576" height="324" viewBox="0 0 576 324" xmlns="http://www.w3.org/2000/svg"><g fill="none" fill-rule="evenodd"><path d="M52.5 120.5l-19-11m2 45L56 130m-11.5 36.5l28 26m26-60l-36-7" stroke="#417505" stroke-linecap="square"/><circle stroke="#417505" fill="#B8E986" cx="25.5" cy="105.5" r="11.5"/><circle stroke="#417505" fill="#B8E986" cx="36.5" cy="159.5" r="11.5"/><circle stroke="#417505" fill="#D0011B" cx="71.5" cy="190.5" r="11.5"/><circle stroke="#979797" fill="#D8D8D8" cx="59.5" cy="123.5" r="11.5"/><circle stroke="#417505" fill="#B8E986" cx="59.5" cy="123.5" r="11.5"/><circle stroke="#417505" fill="#B8E986" cx="101.5" cy="135.5" r="11.5"/><path d="M220 137c38.66 0 70-30.445 70-68S258.66 1 220 1s-70 30.445-70 68 31.34 68 70 68zm0 163c38.66 0 70-30.445 70-68s-31.34-68-70-68-70 30.445-70 68 31.34 68 70 68z" stroke="#D4D4D4" fill="#FFFEF0"/><path d="M502.5 93.5l-30 29m29-30l34 31m-64 19l-29 27m30-29l31 29m0 19v32" stroke="#417505" stroke-linecap="square"/><path stroke="#417505" fill="#B8E986" d="M480 72h43v24h-43zm-29 49h43v24h-43zm60 0h43v24h-43z"/><path stroke="#417505" fill="#D0011B" d="M421 168h43v24h-43z"/><path stroke="#417505" fill="#B8E986" d="M480 168h43v24h-43zm0 46h43v24h-43z"/><path d="M223.677 24.333l-19.354 19.334m19.006-20.323l22.342 21.312M203.683 57.34l-18.366 18.32m19.011-19.327l20.344 19.334m-.172 12.666v21.334" stroke="#7ED321" stroke-linecap="square"/><path stroke="#7ED321" fill="#EDFFDA" d="M210 10h27v17h-27zm-19 33h27v17h-27z"/><path stroke="#7ED321" fill="#0CB5E9" d="M230 43h27v17h-27z"/><path stroke="#7ED321" fill="#EDFFDA" d="M172 75h27v17h-27z"/><path stroke="#7ED321" fill="#0CB5E9" d="M210 75h27v17h-27zm0 31h27v17h-27z"/><path d="M222.677 190.333l-19.354 19.334m19.006-20.323l22.342 21.312m-41.988 12.684l-18.366 18.32m19.011-19.327l20.344 19.334m-.172 12.666v21.334" stroke="#7ED321" stroke-linecap="square"/><path stroke="#7ED321" fill="#EDFFDA" d="M209 176h27v17h-27zm-19 33h27v17h-27z"/><path stroke="#7ED321" fill="#0CB5E9" d="M229 209h27v17h-27z"/><path stroke="#7ED321" fill="#D0011B" d="M171 241h27v17h-27zm151-97h27v17h-27z"/><path d="M276.5 110.5l45 32m-.177-.126l-7.063-8.704-3.478 4.89 10.54 3.814zM276.5 189.5l46-28m-.727.443l-10.786 3.053 3.12 5.125 7.666-8.178z" stroke="#D0011B" stroke-linecap="square" fill="#D0011B"/><path stroke="#7ED321" fill="#0CB5E9" d="M209 241h27v17h-27zm0 31h27v17h-27z"/><text font-family="Helvetica" font-size="12" fill="#000"><tspan x="73" y="104">Model</tspan></text><text font-family="Helvetica" font-size="12" fill="#000"><tspan x="188" y="323">Virtual DOM</tspan></text><text font-family="Helvetica" font-size="12" fill="#000"><tspan x="289" y="154">Diff</tspan></text><text font-family="Helvetica" font-size="12" fill="#000"><tspan x="242" y="89">Reuse</tspan></text><text font-family="Helvetica" font-size="12" fill="#000"><tspan x="374" y="156">Patch</tspan></text><text font-family="Helvetica" font-size="12" fill="#000"><tspan x="548" y="185">DOM</tspan></text><path d="M193.5 4.5l-192 97m258 25l-215 90m193-50l-220-79m172 207l-189-133" stroke="#D4D4D4" stroke-linecap="square"/><path d="M349.5 152.5l71 28m-.3-.118c-3.13-2.364-5.814-4.39-8.946-6.753l-2.2 5.582 11.147 1.171z" stroke="#D0011B" stroke-linecap="square" fill="#D0011B"/><path d="M256 217s37-90.53 37-118.698c0-26.635-37-39.782-37-39.782" stroke="#979797" stroke-linecap="square"/><path d="M263.087 207.32a1714.03 1714.03 0 0 1-6.79 8.947c.438-3.903.801-7.251 1.204-11.139m-24.032 39.118S258 198.03 258 160.02s-24.531-68.165-24.531-68.165" stroke="#979797" stroke-linecap="square"/><path d="M241.246 235.036a340.739 340.739 0 0 1-7.411 8.507 332.08 332.08 0 0 0 1.948-10.987" stroke="#979797" stroke-linecap="square"/><path d="M236.5 123.07s38.652 46.352 38.652 87.278c0 40.925-38.652 67.129-38.652 67.129" stroke="#979797" stroke-linecap="square"/><path d="M243.13 268.22c-2.085 3.234-3.97 5.95-6.341 9.055a137.214 137.214 0 0 0 10.382-4.62" stroke="#979797" stroke-linecap="square"/></g></svg>